<?xml version="1.0" standalone="no"?>
<!DOCTYPE svg PUBLIC "-//W3C//DTD SVG 20010904//EN"
 "http://www.w3.org/TR/2001/REC-SVG-20010904/DTD/svg10.dtd">
<svg version="1.1" id="Layer_1" xmlns="http://www.w3.org/2000/svg" xmlns:xlink="http://www.w3.org/1999/xlink" x="0px" y="0px"
	 width="100%" viewBox="0 0 512 512" enable-background="new 0 0 512 512" xml:space="preserve">
<path fill="#FF6700" opacity="1.000000" stroke="none" 
	d="
M294.000000,513.000000 
	C196.023788,513.000000 98.547569,513.000000 1.071359,513.000000 
	C1.047572,512.857178 1.002938,512.714294 1.002935,512.571472 
	C0.999976,342.113068 1.000000,171.654663 1.000000,1.000000 
	C86.246994,1.000000 171.494125,1.000000 256.741272,1.000000 
	C342.053802,1.000000 427.366302,1.000000 512.839417,1.000000 
	C512.839417,171.666550 512.839417,342.333252 512.839417,513.000000 
	C440.130829,513.000000 367.315399,513.000000 294.000000,513.000000 
M218.058685,411.556732 
	C223.752563,415.710632 229.244522,420.182129 235.180405,423.955322 
	C249.621323,433.134888 264.139008,442.210205 278.887909,450.881683 
	C286.060211,455.098572 293.573425,458.996307 301.372650,461.824158 
	C312.562286,465.881348 324.174805,468.762238 335.569611,472.266174 
	C349.779205,476.635681 364.545685,477.264313 379.064453,476.724731 
	C401.566223,475.888428 424.001160,473.254272 446.464447,471.382385 
	C446.459991,470.901978 446.455536,470.421539 446.451080,469.941132 
	C442.391449,469.544678 438.297211,469.362885 434.277954,468.715637 
	C414.010651,465.451691 393.927856,461.297272 374.358185,455.020813 
	C364.107086,451.733032 353.922394,448.191711 343.874390,444.331116 
	C334.872040,440.872284 325.861603,437.284332 317.277588,432.921356 
	C303.640717,425.990204 290.325439,418.421631 276.928772,411.023712 
	C254.029816,398.378510 233.125671,382.828247 214.490631,364.637543 
	C198.958099,349.475342 184.606781,333.051086 170.378113,316.626312 
	C162.862183,307.950378 156.453888,298.261780 150.041382,288.697906 
	C143.554474,279.023071 136.983307,269.291809 131.720810,258.938812 
	C125.742737,247.178024 120.454659,234.944763 116.218582,222.458237 
	C112.745354,212.220306 111.239708,201.313263 108.886566,190.697342 
	C105.476799,175.314590 106.857269,159.947098 110.664490,145.000763 
	C116.302780,122.866051 127.875633,104.221230 145.806900,89.560455 
	C159.796570,78.122353 175.830795,71.809738 193.366608,69.076317 
	C210.425644,66.417206 227.526062,68.065598 244.037613,72.267471 
	C263.133453,77.127014 281.548218,83.980019 297.736115,96.051521 
	C314.765717,108.750732 328.426666,123.993790 338.037323,142.970947 
	C347.324768,161.309921 350.261841,179.930939 342.030151,199.478958 
	C338.711853,207.358948 334.409973,214.405487 327.834442,220.066406 
	C316.260498,230.030502 302.114380,231.768692 287.794556,232.961304 
	C281.116852,233.517456 274.407410,233.741302 267.707397,233.969635 
	C258.190582,234.293945 248.487076,234.791016 239.887238,229.877594 
	C230.078400,224.273422 223.619110,215.421616 221.426254,204.539062 
	C218.802460,191.517853 223.032364,177.636734 238.238083,173.020416 
	C244.133591,171.230591 250.275970,170.253937 256.123474,168.947601 
	C246.417664,162.438950 236.048920,156.929245 223.749908,154.703064 
	C206.780472,151.631516 192.250885,155.781616 180.318451,167.554825 
	C175.162155,172.642303 171.722733,179.612320 168.077835,186.052277 
	C163.743683,193.710037 162.531815,202.262375 163.493210,210.919556 
	C164.877396,223.384033 173.024994,231.960968 181.722351,239.810303 
	C187.288574,244.833786 193.780945,248.818146 199.731888,253.431183 
	C209.131958,260.717896 218.656494,267.303711 230.574921,270.456909 
	C249.444168,275.449005 268.337738,274.718536 287.104370,271.743439 
	C306.103668,268.731476 324.407654,262.764191 341.161407,252.942337 
	C355.339264,244.630600 367.099548,233.849960 375.033875,219.150421 
	C380.046112,209.864502 380.477966,199.888580 381.211212,189.696579 
	C382.698914,169.017990 379.022736,149.489563 370.343719,130.783493 
	C362.470551,113.814140 350.862335,99.842018 337.007050,87.342796 
	C317.968170,70.167320 295.989227,58.029427 272.059235,49.893967 
	C255.757370,44.351841 238.938034,40.210453 221.432922,38.684181 
	C202.863983,37.065147 184.549850,37.164207 166.520889,41.357418 
	C142.211716,47.011299 120.962692,59.125999 104.395592,77.649086 
	C87.194321,96.881218 74.791817,118.980492 69.752190,144.987320 
	C66.023407,164.229538 65.988647,183.126541 68.856567,202.393661 
	C72.047974,223.834076 79.307625,243.836456 88.689369,263.130737 
	C97.995728,282.269989 108.931618,300.482025 122.505684,316.963135 
	C132.893066,329.575043 142.934494,342.544098 154.169006,354.366760 
	C166.518051,367.362305 179.846832,379.459595 193.158005,391.495605 
	C200.863037,398.462494 209.374603,404.537384 218.058685,411.556732 
z"/>
<path fill="#1E90FF" opacity="1.000000" stroke="none" 
	d="
M217.790955,411.285217 
	C209.374603,404.537384 200.863037,398.462494 193.158005,391.495605 
	C179.846832,379.459595 166.518051,367.362305 154.169006,354.366760 
	C142.934494,342.544098 132.893066,329.575043 122.505684,316.963135 
	C108.931618,300.482025 97.995728,282.269989 88.689369,263.130737 
	C79.307625,243.836456 72.047974,223.834076 68.856567,202.393661 
	C65.988647,183.126541 66.023407,164.229538 69.752190,144.987320 
	C74.791817,118.980492 87.194321,96.881218 104.395592,77.649086 
	C120.962692,59.125999 142.211716,47.011299 166.520889,41.357418 
	C184.549850,37.164207 202.863983,37.065147 221.432922,38.684181 
	C238.938034,40.210453 255.757370,44.351841 272.059235,49.893967 
	C295.989227,58.029427 317.968170,70.167320 337.007050,87.342796 
	C350.862335,99.842018 362.470551,113.814140 370.343719,130.783493 
	C379.022736,149.489563 382.698914,169.017990 381.211212,189.696579 
	C380.477966,199.888580 380.046112,209.864502 375.033875,219.150421 
	C367.099548,233.849960 355.339264,244.630600 341.161407,252.942337 
	C324.407654,262.764191 306.103668,268.731476 287.104370,271.743439 
	C268.337738,274.718536 249.444168,275.449005 230.574921,270.456909 
	C218.656494,267.303711 209.131958,260.717896 199.731888,253.431183 
	C193.780945,248.818146 187.288574,244.833786 181.722351,239.810303 
	C173.024994,231.960968 164.877396,223.384033 163.493210,210.919556 
	C162.531815,202.262375 163.743683,193.710037 168.077835,186.052277 
	C171.722733,179.612320 175.162155,172.642303 180.318451,167.554825 
	C192.250885,155.781616 206.780472,151.631516 223.749908,154.703064 
	C236.048920,156.929245 246.417664,162.438950 256.123474,168.947601 
	C250.275970,170.253937 244.133591,171.230591 238.238083,173.020416 
	C223.032364,177.636734 218.802460,191.517853 221.426254,204.539062 
	C223.619110,215.421616 230.078400,224.273422 239.887238,229.877594 
	C248.487076,234.791016 258.190582,234.293945 267.707397,233.969635 
	C274.407410,233.741302 281.116852,233.517456 287.794556,232.961304 
	C302.114380,231.768692 316.260498,230.030502 327.834442,220.066406 
	C334.409973,214.405487 338.711853,207.358948 342.030151,199.478958 
	C350.261841,179.930939 347.324768,161.309921 338.037323,142.970947 
	C328.426666,123.993790 314.765717,108.750732 297.736115,96.051521 
	C281.548218,83.980019 263.133453,77.127014 244.037613,72.267471 
	C227.526062,68.065598 210.425644,66.417206 193.366608,69.076317 
	C175.830795,71.809738 159.796570,78.122353 145.806900,89.560455 
	C127.875633,104.221230 116.302780,122.866051 110.664490,145.000763 
	C106.857269,159.947098 105.476799,175.314590 108.886566,190.697342 
	C111.239708,201.313263 112.745354,212.220306 116.218582,222.458237 
	C120.454659,234.944763 125.742737,247.178024 131.720810,258.938812 
	C136.983307,269.291809 143.554474,279.023071 150.041382,288.697906 
	C156.453888,298.261780 162.862183,307.950378 170.378113,316.626312 
	C184.606781,333.051086 198.958099,349.475342 214.490631,364.637543 
	C233.125671,382.828247 254.029816,398.378510 276.928772,411.023712 
	C290.325439,418.421631 303.640717,425.990204 317.277588,432.921356 
	C325.861603,437.284332 334.872040,440.872284 343.874390,444.331116 
	C353.922394,448.191711 364.107086,451.733032 374.358185,455.020813 
	C393.927856,461.297272 414.010651,465.451691 434.277954,468.715637 
	C438.297211,469.362885 442.391449,469.544678 446.451080,469.941132 
	C446.455536,470.421539 446.459991,470.901978 446.464447,471.382385 
	C424.001160,473.254272 401.566223,475.888428 379.064453,476.724731 
	C364.545685,477.264313 349.779205,476.635681 335.569611,472.266174 
	C324.174805,468.762238 312.562286,465.881348 301.372650,461.824158 
	C293.573425,458.996307 286.060211,455.098572 278.887909,450.881683 
	C264.139008,442.210205 249.621323,433.134888 235.180405,423.955322 
	C229.244522,420.182129 223.752563,415.710632 217.790955,411.285217 
z"/>
</svg>